<svg id="_x33_0" fill="#ffffff" enable-background="new 0 0 64 64" height="512" viewBox="0 0 64 64" width="512" xmlns="http://www.w3.org/2000/svg"><path d="m61.064 36.45-2.829-1.414h-.235c-2.957 0-5.737-1.152-7.829-3.243l-4.943-4.944c-.104-.104-.214-.199-.321-.299 1.823.271 3.865.45 6.093.45 2.206 0 4-1.794 4-4v-8c0-2.206-1.794-4-4-4-2.825 0-5.46.384-7.753.915.361-.91 1.099-1.643 2.069-1.967l1.242-.414-.727-1.089c-1.035-1.553-1.16-3.554-.325-5.223l1.36-2.72-3.042.76c-1.822.456-3.728.383-5.509-.211l-.949-.316-.366 1.103c-.431 1.293-1.637 2.162-3 2.162h-.82l-1.003 5.018c-.06-.002-.116-.018-.177-.018s-.117.016-.177.018l-1.003-5.018h-.82c-1.363 0-2.569-.869-3-2.163l-.368-1.103-.949.316c-1.782.595-3.687.668-5.509.211l-3.042-.76 1.36 2.72c.834 1.669.71 3.67-.325 5.223l-.727 1.089 1.242.414c.954.318 1.683 1.034 2.051 1.955-2.29-.526-4.91-.902-7.733-.902-2.206 0-4 1.794-4 4v8c0 2.206 1.794 4 4 4 2.247 0 4.305-.184 6.145-.46-.112.104-.228.202-.336.31l-4.944 4.944c-2.091 2.091-4.871 3.243-7.828 3.243h-.236l-2.829 1.413c-1.194.597-1.936 1.797-1.936 3.132 0 .422.075.836.223 1.23 1.897 5.059 4.797 9.562 8.618 13.383 3.813 3.803 8.303 6.69 13.348 8.582.395.148.808.223 1.229.223 1.335 0 2.535-.742 3.132-1.936l1.414-2.828v-.236c0-2.845 1.076-5.52 3.018-7.581 1.943 2.062 3.018 4.736 3.018 7.581v.236l1.414 2.829c.598 1.193 1.798 1.935 3.133 1.935.42 0 .833-.075 1.23-.223 5.043-1.892 9.534-4.778 13.347-8.582.006-.006.012-.012.019-.018.006-.006.012-.012.018-.019 3.803-3.813 6.69-8.303 8.582-13.348.146-.394.221-.808.221-1.227 0-1.335-.742-2.535-1.936-3.133zm-.51 2.073c-9.995 4.098-17.928 12.04-22.013 22.04-.119-.114-.226-.242-.301-.394l-1.106-2.213c3.709-9.551 11.253-17.11 20.798-20.837l2.239 1.119c.146.075.271.174.383.285zm-9.517 9.477c0 1.103-.897 2-2 2-.42 0-.811-.143-1.143-.377.889-.949 1.825-1.853 2.807-2.708.208.321.336.692.336 1.085zm-13.59-18.13-1.411 2.822-2.435-5.275 1.607-3.482c.173.027.348.037.524.046.325.152 1.09.49 2.239.891l3.125 5.728zm-5.447-18.87c1.654 0 3 1.346 3 3 0 1.345-.917 2.514-2.181 2.876-.804-.551-1.773-.876-2.819-.876-.067 0-.129.017-.195.02-.506-.551-.805-1.262-.805-2.02 0-1.654 1.346-3 3-3zm9 8h12v3.287c-1.743-.841-3.651-1.287-5.605-1.287h-6.818c.269-.614.423-1.288.423-2zm-5 3c-.375 0-.738-.076-1.08-.209.042-.259.08-.52.08-.791 0-.94-.276-1.81-.729-2.562 1.002-.518 1.795-1.363 2.262-2.384 1.4.253 2.467 1.474 2.467 2.946 0 1.654-1.346 3-3 3zm-6-4c1.654 0 3 1.346 3 3s-1.346 3-3 3-3-1.346-3-3 1.346-3 3-3zm-5 3h-8.395c-1.954 0-3.863.446-5.605 1.287v-3.287h14.424c-.27.614-.424 1.288-.424 2zm2.032 4.001c.833.619 1.853.999 2.968.999.846 0 1.632-.231 2.331-.604l-3.367 7.296-1.411-2.822-3.628.726zm23.968-.001c-5.333 0-9.604-1.094-12.108-1.937.027-.019.05-.044.077-.063h8.425c1.796 0 3.538.464 5.111 1.302-.366.424-.902.698-1.505.698zm2-10v2h-12.424c-.307-.699-.779-1.302-1.353-1.791 2.807-1.044 7.005-2.209 11.777-2.209 1.103 0 2 .897 2 2zm-18.167-9.067c1.611-.262 3.003-1.272 3.752-2.723 1.537.381 3.131.45 4.697.202-.524 1.69-.408 3.524.325 5.134-1.389.837-2.333 2.272-2.556 3.949-1.624.479-3.005 1-4.058 1.445-.006-.513-.106-.999-.257-1.464l4.031-4.837-1.536-1.28-3.561 4.273c-.436-.475-.96-.864-1.549-1.143zm-14.44 2.613c.733-1.61.849-3.443.325-5.134 1.564.247 3.159.179 4.697-.202.749 1.451 2.142 2.46 3.752 2.723l.711 3.557c-.59.279-1.113.667-1.549 1.143l-3.561-4.273-1.536 1.28 4.031 4.837c-.15.465-.25.951-.256 1.463-1.084-.461-2.452-.979-4.05-1.451-.207-1.647-1.158-3.097-2.564-3.943zm-7.393 4.454c6.898 0 12.652 2.46 14.631 3.419.029.053.054.107.085.159-.24.125-.47.261-.685.422h-16.031v-2c0-1.103.897-2 2-2zm-1.506 11.302c1.574-.838 3.316-1.302 5.111-1.302h8.706c-2.529.876-6.841 2-12.312 2-.602 0-1.138-.274-1.505-.698zm-7.627 13.937 2.239-1.119c9.545 3.726 17.089 11.286 20.798 20.837l-1.107 2.213c-.076.152-.183.279-.301.393-4.086-10-12.019-17.942-22.013-22.04.111-.111.237-.21.384-.284zm9.469 8.677c.982.854 1.918 1.758 2.807 2.708-.332.233-.723.376-1.143.376-1.103 0-2-.897-2-2 0-.393.127-.763.336-1.084zm-2.081 5.829c-3.468-3.478-6.123-7.557-7.914-12.119 3.042 1.31 5.873 3 8.442 5.008-.499.679-.783 1.503-.783 2.366 0 2.206 1.794 4 4 4 .919 0 1.785-.317 2.482-.87 2.407 2.856 4.406 6.067 5.904 9.556-4.569-1.798-8.652-4.461-12.131-7.941zm16.265 1.627c-3.772-7.783-10.053-14.075-17.83-17.861 2.09-.606 4.008-1.721 5.59-3.303l4.944-4.944c1.168-1.168 2.599-2.05 4.151-2.597l-4.298 7.737 6.372-1.274 2.589 5.178 3.464-7.505 3.464 7.505 2.433-4.865c.392 1.146.601 2.344.601 3.578 0 2.944-1.146 5.711-3.228 7.793l-4.943 4.943c-1.588 1.588-2.706 3.515-3.309 5.615zm5.902-5.38 3.764-3.764c2.46-2.459 3.814-5.729 3.814-9.207 0-1.198-.175-2.367-.491-3.499l4.394.879-3.899-7.149c1.03.523 1.985 1.188 2.811 2.013l4.943 4.944c1.581 1.581 3.5 2.697 5.59 3.303-7.777 3.786-14.057 10.078-17.83 17.861-.576-2.001-1.626-3.838-3.096-5.381zm19.345 3.768c-3.477 3.473-7.555 6.131-12.117 7.926 1.498-3.489 3.498-6.7 5.904-9.556.697.554 1.563.87 2.482.87 2.206 0 4-1.794 4-4 0-.863-.284-1.688-.783-2.366 2.569-2.008 5.399-3.699 8.442-5.008-1.793 4.569-4.452 8.652-7.928 12.134z"/></svg>